; NON-PLATED HOLES START AT T1
; THROUGH (PLATED) HOLES START AT T100
M48
INCH
T100C0.048611
T101C0.025000
T102C0.035000
%
T100
X040652Y018098
X039652Y027097
X039652Y024097
X040652Y026097
X040652Y031097
X039652Y030097
X040652Y015097
X039652Y026097
X040652Y014097
X040652Y016097
X039652Y023098
X040652Y012097
X040652Y027097
X039652Y015097
X039652Y013098
X039652Y014097
X039652Y016097
X040652Y029097
X040652Y020097
X040652Y024097
X039652Y019097
X040652Y022097
X039652Y029097
X040652Y023098
X040652Y017097
X040652Y028098
X039652Y021097
X039652Y022097
X039652Y012097
X039652Y028098
X039652Y018098
X040652Y030097
X039652Y017097
X039652Y020097
X040652Y025098
X040652Y019097
X039652Y025098
X040652Y021097
X040652Y013098
X039652Y031097
T101
X029652Y025097
X029652Y024309
X029652Y025883
X029652Y026671
T102
X037652Y024097
X033652Y027097
X033652Y025097
X037652Y025097
X033652Y024097
X037652Y027097
T00
M30
