G04 MADE WITH FRITZING*
G04 WWW.FRITZING.ORG*
G04 DOUBLE SIDED*
G04 HOLES PLATED*
G04 CONTOUR ON CENTER OF CONTOUR VECTOR*
%ASAXBY*%
%FSLAX23Y23*%
%MOIN*%
%OFA0B0*%
%SFA1.0B1.0*%
%ADD10C,0.075000*%
%ADD11C,0.065000*%
%ADD12C,0.090278*%
%ADD13C,0.048000*%
%LNCOPPER1*%
G90*
G70*
G54D10*
X3365Y2410D03*
X3765Y2410D03*
X3365Y2510D03*
X3765Y2510D03*
X3365Y2710D03*
X3765Y2710D03*
G54D11*
X2965Y2431D03*
X2965Y2510D03*
X2965Y2588D03*
X2965Y2667D03*
G54D12*
X3965Y3110D03*
X3965Y3010D03*
X3965Y2910D03*
X3965Y2810D03*
X3965Y2710D03*
X3965Y2610D03*
X3965Y2510D03*
X3965Y2410D03*
X3965Y2310D03*
X3965Y2210D03*
X3965Y2110D03*
X3965Y2010D03*
X3965Y1910D03*
X3965Y1810D03*
X3965Y1710D03*
X3965Y1610D03*
X3965Y1510D03*
X3965Y1410D03*
X3965Y1310D03*
X3965Y1210D03*
X4065Y1210D03*
X4065Y1310D03*
X4065Y1410D03*
X4065Y1510D03*
X4065Y1610D03*
X4065Y1710D03*
X4065Y1810D03*
X4065Y1910D03*
X4065Y2010D03*
X4065Y2110D03*
X4065Y2210D03*
X4065Y2310D03*
X4065Y2410D03*
X4065Y2510D03*
X4065Y2610D03*
X4065Y2710D03*
X4065Y2810D03*
X4065Y2910D03*
X4065Y3010D03*
X4065Y3110D03*
G54D13*
X3067Y2608D02*
X3165Y2510D01*
D02*
X3165Y2711D02*
X3337Y2538D01*
D02*
X3165Y2510D02*
X3330Y2427D01*
D02*
X2768Y2608D02*
X2768Y2809D01*
D02*
X2995Y2650D02*
X3067Y2608D01*
D02*
X2768Y2809D02*
X3165Y2809D01*
D02*
X3165Y2809D02*
X3165Y2711D01*
D02*
X2566Y2510D02*
X2566Y2912D01*
D02*
X3366Y2912D02*
X3365Y2749D01*
D02*
X2931Y2592D02*
X2768Y2608D01*
D02*
X2566Y2912D02*
X3366Y2912D01*
D02*
X2931Y2438D02*
X2566Y2510D01*
D02*
X3801Y2692D02*
X3924Y2631D01*
D02*
X3919Y2510D02*
X3805Y2510D01*
D02*
X3919Y2410D02*
X3805Y2410D01*
D02*
X2465Y3010D02*
X2465Y2310D01*
D02*
X3464Y3010D02*
X2465Y3010D01*
D02*
X2465Y2310D02*
X3266Y2309D01*
D02*
X3925Y2734D02*
X3464Y3010D01*
D02*
X3266Y2309D02*
X2985Y2497D01*
G04 End of Copper1*
M02*