; NON-PLATED HOLES START AT T1
; THROUGH (PLATED) HOLES START AT T100
M48
INCH
T100C0.027778
%
T100
X038025Y009576
X034025Y009576
X042024Y028576
X045025Y028576
X027424Y028576
X043025Y009576
X041025Y009576
X035025Y009576
X039025Y028576
X033425Y028576
X045025Y009576
X042024Y009576
X038025Y028576
X035425Y028576
X030425Y028576
X044025Y009576
X043025Y028576
X031425Y028576
X028425Y028576
X036025Y009576
X033025Y009576
X032025Y009576
X041025Y028576
X037024Y009576
X044025Y028576
X040025Y009576
X036424Y028576
X029425Y028576
X032425Y028576
X040025Y028576
X034425Y028576
X031025Y009576
T00
M30
