G04 MADE WITH FRITZING*
G04 WWW.FRITZING.ORG*
G04 SINGLE SIDED*
G04 HOLES NOT PLATED*
G04 CONTOUR ON CENTER OF CONTOUR VECTOR*
%ASAXBY*%
%FSLAX23Y23*%
%MOIN*%
%OFA0B0*%
%SFA1.0B1.0*%
%ADD10C,0.083333*%
%ADD11R,0.055118X0.059055*%
%ADD12R,0.074803X0.062992*%
%ADD13C,0.024000*%
%LNCOPPER0*%
G90*
G70*
G54D10*
X4103Y958D03*
X4202Y958D03*
X4303Y958D03*
X4403Y958D03*
X4503Y958D03*
X3642Y2858D03*
X3543Y2858D03*
X3443Y2858D03*
X3343Y2858D03*
X3243Y2858D03*
X3143Y2858D03*
X3043Y2858D03*
X2943Y2858D03*
X2843Y2858D03*
X2742Y2858D03*
X4503Y2858D03*
X4403Y2858D03*
X4303Y2858D03*
X4202Y2858D03*
X4103Y2858D03*
X4003Y2858D03*
X3903Y2858D03*
X3803Y2858D03*
X3203Y958D03*
X3103Y958D03*
X3303Y958D03*
X3403Y958D03*
X3503Y958D03*
X3603Y958D03*
X3702Y958D03*
X3803Y958D03*
X4003Y958D03*
G54D11*
X3683Y1758D03*
X3603Y1758D03*
X3683Y1858D03*
X3603Y1858D03*
X3683Y1658D03*
X3603Y1658D03*
G54D12*
X3903Y2336D03*
X3903Y2458D03*
X3803Y2336D03*
X3803Y2458D03*
X4003Y2336D03*
X4003Y2458D03*
G54D13*
X3803Y2833D02*
X3803Y2484D01*
D02*
X3903Y2833D02*
X3903Y2484D01*
D02*
X4003Y2833D02*
X4003Y2484D01*
D02*
X3800Y1858D02*
X3802Y2310D01*
D02*
X3705Y1858D02*
X3800Y1858D01*
D02*
X3904Y1761D02*
X3903Y2310D01*
D02*
X3705Y1758D02*
X3904Y1761D01*
D02*
X4001Y1657D02*
X4002Y2310D01*
D02*
X3705Y1658D02*
X4001Y1657D01*
D02*
X3600Y1257D02*
X3400Y1257D01*
D02*
X3400Y1257D02*
X3400Y1657D01*
D02*
X3400Y1657D02*
X3581Y1658D01*
D02*
X3602Y983D02*
X3600Y1257D01*
D02*
X3400Y1761D02*
X3581Y1758D01*
D02*
X3400Y1657D02*
X3400Y1761D01*
D02*
X3400Y1858D02*
X3581Y1858D01*
D02*
X3400Y1761D02*
X3400Y1858D01*
G04 End of Copper0*
M02*